<?xml version="1.0" standalone="no"?><!DOCTYPE svg PUBLIC "-//W3C//DTD SVG 1.1//EN" "http://www.w3.org/Graphics/SVG/1.1/DTD/svg11.dtd"><svg t="1630975143183" class="icon" viewBox="0 0 1024 1024" version="1.1" xmlns="http://www.w3.org/2000/svg" p-id="2670" xmlns:xlink="http://www.w3.org/1999/xlink" width="200" height="200"><defs><style type="text/css"></style></defs><path d="M422.094388 792.250543h33.498294v194.28217h-33.498294zM568.407318 792.250543h33.498294v194.28217h-33.498294z" fill="#E42105" p-id="2671"></path><path d="M422.102326 925.680124v60.852589a33.59355 33.59355 0 0 0 33.498294 33.498295h112.79876a33.59355 33.59355 0 0 0 33.498294-33.498295v-60.852589h-179.795348z" fill="#FF7039" p-id="2672"></path><path d="M335.887876 719.681488l86.206512 111.65569h179.803286l86.21445-111.65569L512 675.01445z" fill="#4C7FE1" p-id="2673"></path><path d="M512 3.968992l58.701395 715.712496h117.410729l107.40093-139.089364a356.415504 356.415504 0 0 0 74.497985-218.612093C870.003101 164.252775 709.71138 3.968992 512 3.968992z" fill="#E42105" p-id="2674"></path><path d="M153.996899 361.972093c0 82.324837 27.782946 158.148465 74.490047 218.620031l107.40093 139.081426h117.402791L512 3.968992C314.280682 3.968992 153.996899 164.252775 153.996899 361.972093z" fill="#5BACF5" p-id="2675"></path><path d="M392.660341 361.972093c0 82.324837 9.271566 158.148465 24.837954 218.620031l35.80031 139.081426h117.40279l35.80031-139.073488c15.574326-60.487442 24.830016-136.295194 24.830016-218.620031C631.331721 164.244837 577.909085 3.968992 512 3.968992c-65.909085 0-119.339659 160.283783-119.339659 358.003101z" fill="#FFD117" p-id="2676"></path></svg>